<svg xmlns="http://www.w3.org/2000/svg" xmlns:xlink="http://www.w3.org/1999/xlink" width="526" height="100.164" viewBox="0 0 526 100.164">
  <defs>
    <clipPath id="clip-path">
      <path id="path16" d="M0-120.945H100v100H0Z" transform="translate(0 120.945)"/>
    </clipPath>
  </defs>
  <g id="logo" transform="translate(-140 -43)">
    <g id="g10" transform="translate(140 43.164)">
      <g id="g12">
        <g id="g14" clip-path="url(#clip-path)">
          <g id="g20" transform="translate(13.011 10.541)">
            <path id="path22" d="M-15.34,0S-31.685,42.174-69.158,16.445" transform="translate(69.158)" fill="none" stroke="#000" stroke-linecap="round" stroke-linejoin="round" stroke-miterlimit="10" stroke-width="1"/>
          </g>
          <g id="g24" transform="translate(26.415 11.549)">
            <path id="path26" d="M-.681,0C-3.355,6.819-4.325,14.851-.716,21.518c3.3,6.093,9.593,8.64,15.579,10.831,2.926,1.072,5.921,2.064,8.495,3.924A20.978,20.978,0,0,1,29.387,43.2a26.391,26.391,0,0,1,2.96,10.613,32.007,32.007,0,0,1-.107,5.332,25.353,25.353,0,0,1-.779,4.579c-.39,1.51-.929,4.9-1.69,6.346" transform="translate(3.069)" fill="none" stroke="#000" stroke-linecap="round" stroke-linejoin="round" stroke-miterlimit="10" stroke-width="1"/>
          </g>
          <g id="g28" transform="translate(59.241 53.793)">
            <path id="path30" d="M-9.218-.27C-28.385-8.628-41.556,26.357-41.556,26.357" transform="translate(41.556 1.56)" fill="none" stroke="#000" stroke-linecap="round" stroke-linejoin="round" stroke-miterlimit="10" stroke-width="1"/>
          </g>
          <g id="g32" transform="translate(66.258 9.791)">
            <path id="path34" d="M-7.751-7.723c-6.043-.7-11.891-2.324-17.221-6.107a22.66,22.66,0,0,1-8.083-10.45c-2.407-6.486-2.236-13.511-1.032-20.317" transform="translate(34.944 44.597)" fill="none" stroke="#000" stroke-linecap="round" stroke-linejoin="round" stroke-miterlimit="10" stroke-width="1"/>
          </g>
          <g id="g36" transform="translate(62.061 15.964)">
            <path id="path38" d="M-4.045,0S-37.128,53.055-2.263,64.252" transform="translate(18.234)" fill="none" stroke="red" stroke-linecap="round" stroke-linejoin="round" stroke-miterlimit="10" stroke-width="1.333"/>
          </g>
          <g id="g40" transform="translate(12.082 41.628)">
            <path id="path42" d="M0-2.47S60.829-34.933,75.736,7.869" transform="translate(0 14.261)" fill="none" stroke="red" stroke-width="1.333"/>
          </g>
          <g id="g44" transform="translate(37.939 8.583)">
            <path id="path46" d="M0,0S28.26,30.444,51.417,24.178" fill="none" stroke="red" stroke-linecap="round" stroke-linejoin="round" stroke-miterlimit="10" stroke-width="1.333"/>
          </g>
          <g id="g48" transform="translate(10.195 8.019)">
            <path id="path50" d="M0-5.962S43.22-2.48,44.138-34.428" transform="translate(0 34.428)" fill="none" stroke="red" stroke-linecap="round" stroke-linejoin="round" stroke-miterlimit="10" stroke-width="1.333"/>
          </g>
          <g id="g52" transform="translate(5.317 7.162)">
            <path id="path54" d="M-1.354-14.149c-4.855-.1-4.747-3.387-4.747-3.387-.2-1.8,5.657-12.6,5.657-12.6,2.724-5.5-1.153-8.794-1.414-11.637-1.206-13.114,3.025-21.145,8.771-27.5,9.5-10.522,21.7-12.5,29.692-12.43,20.461.155,28.741,6.957,35.006,14.276C84.642-52.185,81.886-38.807,81.886-38.807c-.311,7.932-10.762,22.381-10.762,22.381C62.793-3.882,66.887,5.8,66.887,5.8" transform="translate(6.106 81.702)" fill="none" stroke="#000" stroke-width="2.667"/>
          </g>
          <g id="g56" transform="translate(24.232 79.883)">
            <path id="path58" d="M-.144-.307S-2.3,3.92,2.292,2.915,8.481-.013,8.842-.515,8.761-1.73,7.4-1.771,1.052-1.145-.144-.307Z" transform="translate(0.651 1.773)" fill="none" stroke="#666" stroke-width="1"/>
          </g>
          <g id="g60" transform="translate(25.801 88.06)">
            <path id="path62" d="M0-.352C4.673-1.19,7.63-2.11,8.588-2.026" transform="translate(0 2.032)" fill="none" stroke="#666" stroke-width="1"/>
          </g>
          <g id="g64" transform="translate(18.97 81.349)">
            <path id="path66" d="M-1.958-1.752c2.153,0-15.642,1.018-1.1-8.363" transform="translate(8.828 10.115)" fill="none" stroke="#666" stroke-width="1"/>
          </g>
          <g id="g68" transform="translate(24.972 81.231)">
            <path id="path70" d="M-.3-2.6c-.708.586-.487-.9-.444-1.278.1-.9.218-1.8.313-2.694a27.826,27.826,0,0,0,.2-6.559c-.086-.642-.28-1.886-1.106-1.9" transform="translate(1.331 15.035)" fill="none" stroke="#666" stroke-width="1"/>
          </g>
          <g id="g72" transform="translate(22.016 75.31)">
            <path id="path74" d="M0-3.4a55.185,55.185,0,0,0,6.661-9.147A21.536,21.536,0,0,0,9.279-18.7c.09-.189.135-.466.225-.657a1.375,1.375,0,0,1,.053-.288c-.243.632.039-.054,0,0C7.821-13.78,5.94-7.914,4.37-2.028" transform="translate(0 19.644)" fill="none" stroke="#666" stroke-width="1"/>
          </g>
          <g id="g76" transform="translate(25.974 92.895)">
            <path id="path78" d="M-.121,0S-.4.734-.547.788" transform="translate(0.547)" fill="none" stroke="#666" stroke-width="1"/>
          </g>
        </g>
      </g>
    </g>
    <text id="Dott._Andrea_Costacurta" data-name="Dott. Andrea Costacurta" transform="translate(262 66)" font-size="24" font-family="Raleway" font-weight="600"><tspan x="0" y="0">Dott. Andrea Costacurta</tspan></text>
    <text id="Medico_chirurgo_Psichiatra_-_Psicoterapeuta_-_Psicoanalista" data-name="Medico chirurgo
Psichiatra - Psicoterapeuta - Psicoanalista" transform="translate(262 113)" font-size="21" font-family="Raleway"><tspan x="0" y="0">Medico chirurgo</tspan><tspan x="0" y="25">Psichiatra - Psicoterapeuta - Psicoanalista</tspan></text>
  </g>
</svg>
