<?xml version="1.0" encoding="UTF-8" standalone="no"?>
<svg
   xmlns:dc="http://purl.org/dc/elements/1.1/"
   xmlns:cc="http://creativecommons.org/ns#"
   xmlns:rdf="http://www.w3.org/1999/02/22-rdf-syntax-ns#"
   xmlns:svg="http://www.w3.org/2000/svg"
   xmlns="http://www.w3.org/2000/svg"
   viewBox="0 0 128.50388 120.94493"
   height="120.94493"
   width="128.50388"
   xml:space="preserve"
   id="svg2"
   version="1.1"><metadata
     id="metadata8"><rdf:RDF><cc:Work
         rdf:about=""><dc:format>image/svg+xml</dc:format><dc:type
           rdf:resource="http://purl.org/dc/dcmitype/StillImage" /></cc:Work></rdf:RDF></metadata><defs
     id="defs6"><clipPath
       id="clipPath18"
       clipPathUnits="userSpaceOnUse"><path
         id="path16"
         d="M 0,90.709 H 96.378 V 0 H 0 Z" /></clipPath></defs><g
     transform="matrix(1.3333333,0,0,-1.3333333,0,120.94493)"
     id="g10"><g
       id="g12"><g
         clip-path="url(#clipPath18)"
         id="g14"><g
           transform="translate(64.4092,81.147)"
           id="g20"><path
             id="path22"
             style="fill:none;stroke:#000000;stroke-width:0.75;stroke-linecap:round;stroke-linejoin:round;stroke-miterlimit:10;stroke-dasharray:none;stroke-opacity:1"
             d="M 0,0 C 0,0 -15.753,-38.256 -51.869,-14.917" /></g><g
           transform="translate(27.7598,80.2334)"
           id="g24"><path
             id="path26"
             style="fill:none;stroke:#000000;stroke-width:0.75;stroke-linecap:round;stroke-linejoin:round;stroke-miterlimit:10;stroke-dasharray:none;stroke-opacity:1"
             d="m 0,0 c -2.577,-6.185 -3.512,-13.471 -0.034,-19.519 3.181,-5.527 9.246,-7.837 15.015,-9.825 2.82,-0.972 5.707,-1.872 8.187,-3.559 2.393,-1.625 4.361,-3.803 5.811,-6.282 1.733,-2.959 2.548,-6.252 2.853,-9.627 0.147,-1.63 0.036,-3.211 -0.103,-4.837 -0.128,-1.493 -0.353,-2.705 -0.751,-4.154 -0.376,-1.37 -0.895,-4.444 -1.629,-5.756" /></g><g
           transform="translate(88.2627,40.7441)"
           id="g28"><path
             id="path30"
             style="fill:none;stroke:#000000;stroke-width:0.75;stroke-linecap:round;stroke-linejoin:round;stroke-miterlimit:10;stroke-dasharray:none;stroke-opacity:1"
             d="M 0,0 C -18.473,7.581 -31.167,-24.153 -31.167,-24.153" /></g><g
           transform="translate(90.0664,48.3799)"
           id="g32"><path
             id="path34"
             style="fill:none;stroke:#000000;stroke-width:0.75;stroke-linecap:round;stroke-linejoin:round;stroke-miterlimit:10;stroke-dasharray:none;stroke-opacity:1"
             d="m 0,0 c -5.824,0.638 -11.46,2.108 -16.597,5.54 -3.646,2.451 -6.132,5.556 -7.79,9.479 -2.32,5.883 -2.155,12.256 -0.995,18.429" /></g><g
           transform="translate(73.4893,76.2285)"
           id="g36"><path
             id="path38"
             style="fill:none;stroke:#ff0000;stroke-width:1;stroke-linecap:round;stroke-linejoin:round;stroke-miterlimit:10;stroke-dasharray:none;stroke-opacity:1"
             d="M 0,0 C 0,0 -31.885,-48.126 1.717,-58.282" /></g><g
           transform="translate(11.6445,42.2529)"
           id="g40"><path
             id="path42"
             style="fill:none;stroke:#ff0000;stroke-width:1;stroke-linecap:butt;stroke-linejoin:miter;stroke-miterlimit:4;stroke-dasharray:none;stroke-opacity:1"
             d="M 0,0 C 0,0 58.626,29.447 72.993,-9.378" /></g><g
           transform="translate(36.5645,82.9238)"
           id="g44"><path
             id="path46"
             style="fill:none;stroke:#ff0000;stroke-width:1;stroke-linecap:round;stroke-linejoin:round;stroke-miterlimit:10;stroke-dasharray:none;stroke-opacity:1"
             d="M 0,0 C 0,0 27.236,-27.615 49.555,-21.932" /></g><g
           transform="translate(9.8262,57.6143)"
           id="g48"><path
             id="path50"
             style="fill:none;stroke:#ff0000;stroke-width:1;stroke-linecap:round;stroke-linejoin:round;stroke-miterlimit:10;stroke-dasharray:none;stroke-opacity:1"
             d="M 0,0 C 0,0 41.655,-3.159 42.539,25.821" /></g><g
           transform="translate(9.7041,22.9355)"
           id="g52"><path
             id="path54"
             style="fill:none;stroke:#000000;stroke-width:2;stroke-linecap:butt;stroke-linejoin:miter;stroke-miterlimit:4;stroke-dasharray:none;stroke-opacity:1"
             d="m 0,0 c -4.679,0.087 -4.575,3.072 -4.575,3.072 -0.19,1.637 5.452,11.429 5.452,11.429 2.625,4.991 -1.111,7.977 -1.363,10.556 -1.162,11.896 2.915,19.18 8.453,24.943 9.152,9.544 20.915,11.339 28.617,11.275 19.72,-0.141 27.7,-6.311 33.738,-12.95 C 82.882,34.502 80.225,22.367 80.225,22.367 79.925,15.172 69.853,2.065 69.853,2.065 61.824,-9.313 65.77,-18.093 65.77,-18.093" /></g><g
           transform="translate(23.8428,16.918)"
           id="g56"><path
             id="path58"
             style="fill:none;stroke:#666666;stroke-width:0.75;stroke-linecap:butt;stroke-linejoin:miter;stroke-miterlimit:4;stroke-dasharray:none;stroke-opacity:1"
             d="M 0,0 C 0,0 -2.08,-3.834 2.348,-2.923 6.774,-2.012 8.313,-0.267 8.661,0.189 9.007,0.645 8.583,1.291 7.274,1.328 5.966,1.367 1.153,0.76 0,0 Z" /></g><g
           transform="translate(24.8662,9.3066)"
           id="g60"><path
             id="path62"
             style="fill:none;stroke:#666666;stroke-width:0.75;stroke-linecap:butt;stroke-linejoin:miter;stroke-miterlimit:4;stroke-dasharray:none;stroke-opacity:1"
             d="M 0,0 C 4.504,0.76 7.354,1.595 8.277,1.519" /></g><g
           transform="translate(24.9043,9.332)"
           id="g64"><path
             id="path66"
             style="fill:none;stroke:#666666;stroke-width:0.75;stroke-linecap:butt;stroke-linejoin:miter;stroke-miterlimit:4;stroke-dasharray:none;stroke-opacity:1"
             d="M 0,0 C 2.075,0 -15.075,-0.923 -1.062,7.586" /></g><g
           transform="translate(25.0654,5.749)"
           id="g68"><path
             id="path70"
             style="fill:none;stroke:#666666;stroke-width:0.75;stroke-linecap:butt;stroke-linejoin:miter;stroke-miterlimit:4;stroke-dasharray:none;stroke-opacity:1"
             d="m 0,0 c -0.682,-0.532 -0.469,0.818 -0.428,1.159 0.101,0.816 0.21,1.629 0.302,2.444 0.221,1.948 0.472,3.996 0.194,5.95 -0.083,0.582 -0.27,1.711 -1.066,1.723" /></g><g
           transform="translate(21.2188,7.6631)"
           id="g72"><path
             id="path74"
             style="fill:none;stroke:#666666;stroke-width:0.75;stroke-linecap:butt;stroke-linejoin:miter;stroke-miterlimit:4;stroke-dasharray:none;stroke-opacity:1"
             d="m 0,0 c 2.419,2.548 4.506,5.207 6.42,8.297 1.045,1.801 2.089,3.516 2.523,5.576 0.087,0.171 0.13,0.423 0.217,0.596 0,0.085 0.031,0.178 0.051,0.261 -0.234,-0.573 0.038,0.049 0,0 C 7.538,9.414 5.725,4.093 4.212,-1.246" /></g><g
           transform="translate(25.4434,6.4453)"
           id="g76"><path
             id="path78"
             style="fill:none;stroke:#666666;stroke-width:0.75;stroke-linecap:butt;stroke-linejoin:miter;stroke-miterlimit:4;stroke-dasharray:none;stroke-opacity:1"
             d="M 0,0 C 0,0 -0.269,-0.666 -0.41,-0.715" /></g></g></g></g></svg>