<svg xmlns="http://www.w3.org/2000/svg" xmlns:xlink="http://www.w3.org/1999/xlink" width="526" height="105" viewBox="0 0 526 105">
  <defs>
    <clipPath id="clip-path">
      <path id="path16" d="M0-120.945H100V-16.109H0Z" transform="translate(0 120.945)"/>
    </clipPath>
  </defs>
  <g id="logo_social" data-name="logo+social" transform="translate(0 0.164)">
    <g id="logo" transform="translate(0 0)">
      <g id="g10">
        <g id="g12">
          <g id="g14" clip-path="url(#clip-path)">
            <g id="g20" transform="translate(13.011 11.051)">
              <path id="path22" d="M-15.34,0S-31.685,44.214-69.158,17.24" transform="translate(69.158)" fill="none" stroke="#fcf7f7" stroke-linecap="round" stroke-linejoin="round" stroke-miterlimit="10" stroke-width="1"/>
            </g>
            <g id="g24" transform="translate(26.415 12.107)">
              <path id="path26" d="M-.681,0C-3.355,7.148-4.325,15.569-.716,22.559c3.3,6.388,9.593,9.058,15.579,11.355,2.926,1.123,5.921,2.164,8.495,4.113a21.719,21.719,0,0,1,6.029,7.26,28.7,28.7,0,0,1,2.96,11.126A35.169,35.169,0,0,1,32.241,62a27.753,27.753,0,0,1-.779,4.8c-.39,1.583-.929,5.136-1.69,6.652" transform="translate(3.069)" fill="none" stroke="#fcf7f7" stroke-linecap="round" stroke-linejoin="round" stroke-miterlimit="10" stroke-width="1"/>
            </g>
            <g id="g28" transform="translate(59.241 56.394)">
              <path id="path30" d="M-9.218-.208C-28.385-8.969-41.556,27.707-41.556,27.707" transform="translate(41.556 1.56)" fill="none" stroke="#fcf7f7" stroke-linecap="round" stroke-linejoin="round" stroke-miterlimit="10" stroke-width="1"/>
            </g>
            <g id="g32" transform="translate(66.258 10.264)">
              <path id="path34" d="M-7.751-5.94c-6.043-.737-11.891-2.436-17.221-6.4A23.64,23.64,0,0,1-33.055-23.3c-2.407-6.8-2.236-14.165-1.032-21.3" transform="translate(34.944 44.597)" fill="none" stroke="#fcf7f7" stroke-linecap="round" stroke-linejoin="round" stroke-miterlimit="10" stroke-width="1"/>
            </g>
            <g id="g36" transform="translate(62.061 16.736)">
              <path id="path38" d="M-4.045,0S-37.128,55.621-2.263,67.359" transform="translate(18.234)" fill="none" stroke="red" stroke-linecap="round" stroke-linejoin="round" stroke-miterlimit="10" stroke-width="1.333"/>
            </g>
            <g id="g40" transform="translate(12.082 43.641)">
              <path id="path42" d="M0-1.9S60.829-35.933,75.736,8.939" transform="translate(0 14.261)" fill="none" stroke="red" stroke-width="1.333"/>
            </g>
            <g id="g44" transform="translate(37.939 8.998)">
              <path id="path46" d="M0,0S28.26,31.916,51.417,25.348" fill="none" stroke="red" stroke-linecap="round" stroke-linejoin="round" stroke-miterlimit="10" stroke-width="1.333"/>
            </g>
            <g id="g48" transform="translate(10.195 8.406)">
              <path id="path50" d="M0-4.586S43.22-.935,44.138-34.428" transform="translate(0 34.428)" fill="none" stroke="red" stroke-linecap="round" stroke-linejoin="round" stroke-miterlimit="10" stroke-width="1.333"/>
            </g>
            <g id="g52" transform="translate(5.317 7.509)">
              <path id="path54" d="M-1.354-10.882c-4.855-.1-4.747-3.55-4.747-3.55C-6.3-16.325-.444-27.642-.444-27.642c2.724-5.768-1.153-9.219-1.414-12.2C-3.064-53.59,1.166-62.009,6.912-68.669c9.5-11.03,21.7-13.1,29.692-13.031,20.461.163,28.741,7.294,35.006,14.967,13.032,15.976,10.275,30,10.275,30-.311,8.316-10.762,23.464-10.762,23.464-8.331,13.15-4.236,23.3-4.236,23.3" transform="translate(6.106 81.702)" fill="none" stroke="#f8f8f8" stroke-width="2.667"/>
            </g>
            <g id="g56" transform="translate(24.232 83.746)">
              <path id="path58" d="M-.144-.236S-2.3,4.195,2.292,3.142s6.189-3.07,6.55-3.6S8.761-1.728,7.4-1.771,1.052-1.115-.144-.236Z" transform="translate(0.651 1.773)" fill="none" stroke="#fcf7f7" stroke-width="1"/>
            </g>
            <g id="g60" transform="translate(25.801 92.319)">
              <path id="path62" d="M0-.271c4.673-.878,7.63-1.843,8.588-1.756" transform="translate(0 2.032)" fill="none" stroke="#fcf7f7" stroke-width="1"/>
            </g>
            <g id="g64" transform="translate(18.97 85.283)">
              <path id="path66" d="M-1.958-1.347c2.153,0-15.642,1.067-1.1-8.767" transform="translate(8.828 10.115)" fill="none" stroke="#fcf7f7" stroke-width="1"/>
            </g>
            <g id="g68" transform="translate(24.972 85.159)">
              <path id="path70" d="M-.3-2C-1-1.388-.782-2.948-.739-3.342c.1-.943.218-1.883.313-2.825a30.569,30.569,0,0,0,.2-6.877c-.086-.673-.28-1.977-1.106-1.991" transform="translate(1.331 15.035)" fill="none" stroke="#666" stroke-width="1"/>
            </g>
            <g id="g72" transform="translate(22.016 78.952)">
              <path id="path74" d="M0-2.616a57.824,57.824,0,0,0,6.661-9.589A23.17,23.17,0,0,0,9.279-18.65c.09-.2.135-.489.225-.689a1.5,1.5,0,0,1,.053-.3c-.243.662.039-.057,0,0C7.821-13.5,5.94-7.347,4.37-1.176" transform="translate(0 19.644)" fill="none" stroke="#fcf7f7" stroke-width="1"/>
            </g>
            <g id="g76" transform="translate(25.974 97.387)">
              <path id="path78" d="M-.121,0S-.4.77-.547.826" transform="translate(0.547)" fill="none" stroke="#666" stroke-width="1"/>
            </g>
          </g>
        </g>
      </g>
      <text id="Dott._Andrea_Costacurta" data-name="Dott. Andrea Costacurta" transform="translate(122 22.836)" fill="#fcf7f7" font-size="24" font-family="Raleway" font-weight="600"><tspan x="0" y="0">Dott. Andrea Costacurta</tspan></text>
      <text id="Medico_chirurgo_Psichiatra_-_Psicoterapeuta_-_Psicoanalista" data-name="Medico chirurgo
Psichiatra - Psicoterapeuta - Psicoanalista" transform="translate(122 74.836)" fill="#fcf7f7" font-size="21" font-family="Raleway"><tspan x="0" y="0">Medico chirurgo</tspan><tspan x="0" y="25">Psichiatra - Psicoterapeuta - Psicoanalista</tspan></text>
    </g>
  </g>
</svg>
