<svg xmlns="http://www.w3.org/2000/svg" width="193.167" height="193.5" viewBox="0 0 193.167 193.5">
  <g id="per3" transform="translate(-102.058 0)">
    <g id="percorso2" transform="translate(102.058)" fill="none">
      <path d="M96.5,0A96.5,96.5,0,1,1,27.157,29.39,96.5,96.5,0,0,1,96.5,0Z" stroke="none"/>
      <path d="M 96.5 3 C 90.00605010986328 3 83.51826477050781 3.6689453125 77.21689605712891 4.988235473632812 C 71.08550262451172 6.271942138671875 65.06357574462891 8.184814453125 59.31842041015625 10.67366027832031 C 53.68136596679688 13.11570739746094 48.26255798339844 16.13265991210938 43.21244812011719 19.64071655273438 C 38.21002197265625 23.11566162109375 33.53482055664062 27.09620666503906 29.316650390625 31.47181701660156 C 12.34609985351562 49.07525634765625 3 72.16936492919922 3 96.5 C 3 102.845817565918 3.639129638671875 109.1867599487305 4.899627685546875 115.3466873168945 C 6.127792358398438 121.3485260009766 7.960372924804688 127.2521286010742 10.34646606445312 132.8934936523438 C 12.68952941894531 138.43310546875 15.58973693847656 143.7762908935547 18.966552734375 148.774658203125 C 22.31181335449219 153.7262573242188 26.15371704101562 158.3826599121094 30.38552856445312 162.6144714355469 C 34.61734008789062 166.8462829589844 39.27374267578125 170.6881866455078 44.225341796875 174.033447265625 C 49.22370910644531 177.4102630615234 54.56689453125 180.3104705810547 60.10650634765625 182.6535339355469 C 65.74787139892578 185.0396270751953 71.65147399902344 186.8722076416016 77.65331268310547 188.1003723144531 C 83.81324005126953 189.3608703613281 90.15418243408203 190 96.5 190 C 102.845817565918 190 109.1867599487305 189.3608703613281 115.3466873168945 188.1003723144531 C 121.3485260009766 186.8722076416016 127.2521286010742 185.0396270751953 132.8934936523438 182.6535339355469 C 138.43310546875 180.3104705810547 143.7762908935547 177.4102630615234 148.774658203125 174.033447265625 C 153.7262573242188 170.6881866455078 158.3826599121094 166.8462829589844 162.6144714355469 162.6144714355469 C 166.8462829589844 158.3826599121094 170.6881866455078 153.7262573242188 174.033447265625 148.774658203125 C 177.4102630615234 143.7762908935547 180.3104705810547 138.43310546875 182.6535339355469 132.8934936523438 C 185.0396270751953 127.2521286010742 186.8722076416016 121.3485260009766 188.1003723144531 115.3466873168945 C 189.3608703613281 109.1867599487305 190 102.845817565918 190 96.5 C 190 90.15418243408203 189.3608703613281 83.81324005126953 188.1003723144531 77.65331268310547 C 186.8722076416016 71.65147399902344 185.0396270751953 65.74787139892578 182.6535339355469 60.10650634765625 C 180.3104705810547 54.56689453125 177.4102630615234 49.22370910644531 174.033447265625 44.225341796875 C 170.6881866455078 39.27374267578125 166.8462829589844 34.61734008789062 162.6144714355469 30.38552856445312 C 158.3826599121094 26.15371704101562 153.7262573242188 22.31181335449219 148.774658203125 18.966552734375 C 143.7762908935547 15.58973693847656 138.43310546875 12.68952941894531 132.8934936523438 10.34646606445312 C 127.2521286010742 7.960372924804688 121.3485260009766 6.127792358398438 115.3466873168945 4.899627685546875 C 109.1867599487305 3.639129638671875 102.845817565918 3 96.5 3 M 96.5 0 C 149.7954711914062 0 193 43.20452880859375 193 96.5 C 193 149.7954711914062 149.7954711914062 193 96.5 193 C 43.20452880859375 193 0 149.7954711914062 0 96.5 C 0 70.49181365966797 10.28889465332031 46.88670349121094 27.15687561035156 29.38967895507812 C 44.57070922851562 11.32579040527344 69.21270751953125 0 96.5 0 Z" stroke="none" fill="#81b214"/>
    </g>
    <line id="Linea_22" data-name="Linea 22" y2="193" transform="translate(199.225 0.5)" fill="none" stroke="#81b214" stroke-width="3"/>
    <line id="Linea_24" data-name="Linea 24" x2="135" y2="135" transform="translate(131.225 29.5)" fill="none" stroke="#81b214" stroke-width="3"/>
    <line id="Linea_25" data-name="Linea 25" y1="135" x2="135" transform="translate(131.225 29.5)" fill="none" stroke="#81b214" stroke-width="3"/>
    <line id="Linea_26" data-name="Linea 26" x2="193" transform="translate(102.225 97.5)" fill="none" stroke="#81b214" stroke-width="3"/>
    <g id="Ellisse_3" data-name="Ellisse 3" transform="translate(160.725 59)" fill="#0f3057" stroke="#81b214" stroke-width="3">
      <circle cx="37.5" cy="37.5" r="37.5" stroke="none"/>
      <circle cx="37.5" cy="37.5" r="36" fill="none"/>
    </g>
  </g>
</svg>
