<?xml version="1.0"?>
<svg xmlns="http://www.w3.org/2000/svg" xmlns:xlink="http://www.w3.org/1999/xlink" xmlns:svgjs="http://svgjs.com/svgjs" version="1.1" width="512" height="512" x="0" y="0" viewBox="0 0 60 60" style="enable-background:new 0 0 512 512" xml:space="preserve" class=""><g><!-- Generator: Sketch 51.3 (57544) - http://www.bohemiancoding.com/sketch --><title xmlns="http://www.w3.org/2000/svg">036 - Calm</title><desc xmlns="http://www.w3.org/2000/svg">Created with Sketch.</desc><defs xmlns="http://www.w3.org/2000/svg"/><g xmlns="http://www.w3.org/2000/svg" id="Page-1" stroke="none" stroke-width="1" fill="none" fill-rule="evenodd"><g id="036---Calm" transform="translate(-1.000000, -1.000000)" fill="#000000" fill-rule="nonzero"><path d="M2.472,38.391 C2.80078202,38.6194083 3.14797678,38.8200989 3.51,38.991 C3.942,39.212 4.667,39.582 4.718,39.841 C4.78085126,40.1828692 4.73974795,40.5357307 4.6,40.854 C4.451,41.174 4.295,41.449 4.16,41.686 C3.794,42.333 3.181,43.417 4.105,44.172 C4.321,44.372 4.694,44.661 5.034,44.922 C4.78370505,45.359639 4.67048978,45.8623148 4.709,46.365 C4.76206133,46.7609003 4.97674391,47.1171358 5.302,47.349 C5.524,47.505 5.761,47.641 5.994,47.774 C6.586,48.11 6.817,48.267 6.894,48.581 C6.94956021,48.9834802 6.91541128,49.3932674 6.794,49.781 C6.735,50.048 6.678,50.316 6.644,50.581 C6.54469822,51.4923539 6.65729272,52.4143284 6.973,53.275 C7.42281456,54.8638526 8.85996076,55.9707558 10.511,56 C10.7865929,55.9991845 11.0613714,55.9700312 11.331,55.913 C14.1877778,55.2358183 17.0028445,54.3934018 19.762,53.39 C22.015,54.712 23.438,58.732 23.809,60.241 C23.9197719,60.6870872 24.3203652,61.0002183 24.78,61 L49.88,60.93 C50.198095,60.9293833 50.4969218,60.7774667 50.6848608,60.5208273 C50.8727998,60.2641879 50.9274293,59.9334437 50.832,59.63 C50.584758,58.9524505 50.2437748,58.3128965 49.819,57.73 C49.5792082,57.3843183 49.3630492,57.0228282 49.172,56.648 C48.7190564,55.7315437 48.3414759,54.7797332 48.043,53.802 C47.4717419,51.8695435 47.0758071,49.8895347 46.86,47.886 C46.592829,45.572236 46.8048981,43.2282419 47.483,41 C47.6743667,40.4811285 47.4088715,39.9053667 46.89,39.714 C46.3711285,39.5226333 45.7953667,39.7881285 45.604,40.307 C44.8185603,42.8360802 44.5709223,45.5015098 44.877,48.132 C45.1077778,50.2547909 45.5288035,52.3525563 46.135,54.4 C46.4640482,55.4749292 46.879054,56.5216399 47.376,57.53 C47.6041562,57.9828684 47.8630969,58.4195592 48.151,58.837 L48.218,58.937 L25.536,59 C24.8721602,56.6278229 23.6672676,54.4419012 22.016,52.614 L22.916,52.299 C23.586,52.065 24.091,51.889 24.35,51.806 C28.634,50.451 30.776,48.5 30.718,46.006 C30.7049669,45.4631101 30.2610463,45.0298436 29.718,45.03 L29.7,45.03 C29.1480455,45.043101 28.711146,45.5010397 28.724,46.053 C28.748,47.082 27.905,48.583 23.748,49.898 C23.477,49.985 22.955,50.167 22.262,50.409 C21.519,50.669 20.574,50.999 19.532,51.353 L19.525,51.353 C16.7107997,52.3845725 13.8393482,53.2526858 10.925,53.953 C9.99258516,54.1321767 9.08476242,53.5441652 8.867,52.62 C8.65336419,52.0511056 8.5729723,51.4408114 8.632,50.836 C8.658,50.626 8.706,50.418 8.752,50.209 C8.95576498,49.5176489 8.98564963,48.7866772 8.839,48.081 C8.54836782,47.1624818 7.87230663,46.4159671 6.987,46.036 L6.78,45.917 C6.88797779,45.6989963 7.01691908,45.4920204 7.165,45.299 C7.33275906,45.0864363 7.40714209,44.8149259 7.3711438,44.5465408 C7.33514552,44.2781557 7.19184383,44.0358431 6.974,43.875 C6.734,43.699 6.168,43.275 5.754,42.941 C5.802,42.854 5.854,42.758 5.904,42.671 C6.061,42.396 6.24,42.076 6.415,41.706 C6.73144627,41.0050454 6.82465982,40.2237273 6.682,39.468 C6.442,38.248 5.273,37.65 4.421,37.214 C4.13330073,37.0772824 3.85736569,36.9170729 3.596,36.735 C3.38336862,36.5912941 3.18391862,36.42899 3,36.25 C3,36.098 3.163,35.73 3.925,34.803 C5.71607044,32.4972449 7.2517206,30.0039928 8.505,27.367 C8.73934083,26.9538574 8.87135428,26.4906102 8.89,26.016 C8.78670832,25.0108401 8.25404392,24.0993679 7.429,23.516 C7.029,23.145 6.644,22.795 6.599,22.469 C6.60563423,22.2329751 6.65864086,22.0005614 6.755,21.785 C6.918,21.356 7.106,20.936 7.295,20.515 C7.70505054,19.6694994 8.03256792,18.786408 8.273,17.878 L8.373,17.452 C8.58408599,16.4522697 8.85626318,15.4664205 9.188,14.5 C9.97629737,12.324256 11.1967986,10.3305666 12.776,8.639 C14.689,6.615 17.7,5.183 21.74,4.38 C24.8296146,3.70175362 27.9646074,3.24988685 31.12,3.028 C36.766,2.749 41.633,4.448 46.877,8.549 C47.5835904,9.09932348 48.246874,9.70309875 48.861,10.355 C49.2395912,10.7573394 49.8726605,10.7765911 50.275,10.398 C50.6773394,10.0194088 50.6965912,9.38633944 50.318,8.984 C49.6334967,8.25745528 48.8939698,7.58479334 48.106,6.972 C42.459,2.555 37.181,0.725 31.018,1.031 C27.7640828,1.25668862 24.5310865,1.72059835 21.345,2.419 C16.836,3.319 13.559,4.9 11.322,7.264 C9.55741114,9.15217091 8.19304573,11.3778111 7.311,13.807 C6.95086895,14.8522819 6.65498362,15.9186045 6.425,17 L6.325,17.422 C6.1115707,18.2063052 5.82532664,18.9689531 5.47,19.7 C5.27,20.156 5.062,20.612 4.883,21.084 C4.65284498,21.6094053 4.56192334,22.1852424 4.619,22.756 C4.82021123,23.6521932 5.3374331,24.4459531 6.076,24.992 C6.565,25.44 6.886,25.756 6.89,26.031 C6.85421996,26.1830023 6.79697882,26.3291355 6.72,26.465 C5.52247783,28.986227 4.05560327,31.370443 2.345,33.576 C1.62,34.458 0.86,35.487 1.02,36.517 C1.23211923,37.311598 1.75555427,37.9871609 2.472,38.391 Z" id="Shape" fill="#c6cdd7" data-original="#000000" style="" class=""/><path d="M12.167,18.8 L12.267,18.365 C12.4424278,17.5295136 12.6657971,16.7048165 12.936,15.895 C13.5391016,14.2259058 14.4723406,12.6954483 15.68,11.395 C16.9761231,10.1731454 18.5624442,9.30202828 20.289,8.864 C20.6376132,8.76576066 20.9058574,8.48669775 20.9902433,8.13447458 C21.0746292,7.7822514 20.9619648,7.41193017 20.6957164,7.1663819 C20.4294681,6.92083364 20.0512577,6.83844433 19.707,6.951 C17.6463921,7.48650189 15.7586426,8.54420641 14.226,10.022 C12.8334238,11.5175212 11.756941,13.2786676 11.061,15.2 C10.7612032,16.086623 10.5141052,16.9902005 10.321,17.906 L10.221,18.339 C10.1356254,18.6881834 10.2442362,19.0563226 10.5054777,19.3032451 C10.7667192,19.5501676 11.1403903,19.6378757 11.4842121,19.5329737 C11.8280339,19.4280717 12.0890973,19.1467025 12.168,18.796 L12.167,18.8 Z" id="Shape" fill="#c6cdd7" data-original="#000000" style="" class=""/><circle id="Oval" cx="10" cy="22" r="1" fill="#c6cdd7" data-original="#000000" style="" class=""/><path d="M55.414,12.1 C55.2907163,11.5728878 54.7703694,11.2395821 54.24,11.348 C51.1699731,12.0709356 48.2680504,13.378787 45.693,15.2 C44.5181448,12.2857842 42.8240115,9.60905361 40.693,7.3 C40.505199,7.10840432 40.2482872,7.00030678 39.98,7 C39.7062443,6.98721057 39.4415772,7.09985055 39.261,7.306 C37.1483911,9.63491156 35.4747488,12.3269686 34.321,15.252 C31.7280547,13.4041608 28.7997866,12.07946 25.7,11.352 C25.1702517,11.2434566 24.6501828,11.5756982 24.526,12.102 C24.0340851,14.5156985 23.9060012,16.9894043 24.146,19.441 C22.7078493,19.3026872 21.2599562,19.2983352 19.821,19.428 C19.2843847,19.489353 18.8934556,19.9657288 18.938,20.504 C18.968,20.862 19.731,29.312 25.538,34.081 C29.696,37.495 35.199,38.006 38.123,38.006 C38.823,38.006 39.368,37.977 39.723,37.951 C39.8035149,37.9782665 39.8872005,37.9950708 39.972,38.001 C40.0655147,37.9960308 40.1578117,37.977504 40.246,37.946 C40.568,37.968 41.067,37.994 41.737,37.994 C44.618,37.994 50.227,37.502 54.397,34.084 C60.2,29.309 60.967,20.86 61,20.5 C61.0440088,19.9624473 60.6537937,19.486845 60.118,19.425 C58.6802059,19.2962256 57.2334746,19.3032567 55.797,19.446 C56.0370017,16.9919491 55.9079015,14.5157872 55.414,12.1 Z M53.746,19.725 C50.7470629,20.1667484 47.9144482,21.3804308 45.526,23.247 C45.356,23.382 45.199,23.517 45.041,23.664 L45.019,23.686 L45.007,23.699 C44.993,23.713 44.979,23.727 44.966,23.742 C43.2822092,25.3225868 41.9334717,27.2256466 41,29.338 C41,28.99 40.99,28.632 40.974,28.268 C41.0378133,25.5531698 41.8111058,22.9023245 43.217,20.579 C43.9483791,19.4576228 44.8424968,18.4512769 45.87,17.593 C48.1678475,15.7424914 50.8147855,14.3736201 53.653,13.568 C53.9553494,15.6079254 53.9866205,17.6788758 53.746,19.727 L53.746,19.725 Z M39.987,9.519 C41.7269851,11.6143789 43.1021653,13.9874775 44.055,16.539 C42.1642313,18.2248948 40.7534461,20.3812674 39.966,22.789 C39.1855054,20.4185061 37.8055405,18.289998 35.96,16.61 C36.8945508,14.0369384 38.255938,11.6397205 39.987,9.519 Z M26.292,13.568 C29.1611106,14.3820019 31.8337304,15.7734385 34.146,17.657 C35.1425828,18.500427 36.0095472,19.4859967 36.719,20.582 C38.1235062,22.9023086 38.8989953,25.5486223 38.969,28.26 C38.952,28.624 38.944,28.976 38.942,29.317 C38.0111803,27.2459497 36.6834916,25.3774012 35.034,23.817 C34.985879,23.7618877 34.9315141,23.7125566 34.872,23.67 C34.722,23.536 34.582,23.394 34.425,23.27 C32.0296895,21.4004138 29.1945367,20.1770354 26.191,19.717 C25.9550424,17.6717644 25.9890001,15.604383 26.292,13.568 Z M26.81,32.534 C22.767,29.215 21.452,23.634 21.071,21.353 C23.371,21.279 29.1,21.477 33.155,24.806 C37.21,28.135 38.513,33.706 38.894,35.987 C36.6,36.065 30.865,35.863 26.81,32.534 Z M58.865,21.351 C58.488,23.627 57.182,29.204 53.126,32.537 C49.04,35.886 43.326,36.067 41.043,35.986 C41.111,35.562 41.211,35.033 41.353,34.431 C41.353,34.41 41.362,34.388 41.366,34.367 C42.0902235,30.867277 43.8374063,27.6614403 46.386,25.156 C46.4180746,25.1267531 46.4484572,25.0957028 46.477,25.063 C46.577,24.976 46.677,24.892 46.784,24.803 C49.1122151,23.0359519 51.8703738,21.9232287 54.773,21.58 C56.1276839,21.3842011 57.4969284,21.3075742 58.865,21.351 Z" id="Shape" fill="#c6cdd7" data-original="#000000" style="" class=""/></g></g></g></svg>
