<?xml version="1.0"?>
<svg xmlns="http://www.w3.org/2000/svg" xmlns:xlink="http://www.w3.org/1999/xlink" xmlns:svgjs="http://svgjs.com/svgjs" version="1.1" width="512" height="512" x="0" y="0" viewBox="0 0 60 60" style="enable-background:new 0 0 512 512" xml:space="preserve" class=""><g><!-- Generator: Sketch 51.3 (57544) - http://www.bohemiancoding.com/sketch --><title xmlns="http://www.w3.org/2000/svg">038 - Mind Map</title><desc xmlns="http://www.w3.org/2000/svg">Created with Sketch.</desc><defs xmlns="http://www.w3.org/2000/svg"/><g xmlns="http://www.w3.org/2000/svg" id="Page-1" stroke="none" stroke-width="1" fill="none" fill-rule="evenodd"><g id="038---Mind-Map" transform="translate(-1.000000, 0.000000)" fill="#000000" fill-rule="nonzero"><path d="M52.358,29.925 C52.598521,30.0374035 52.8738678,30.049549 53.1233515,29.9587594 C53.3728353,29.8679698 53.5759761,29.681698 53.688,29.441 C54.6201202,27.4435919 55.1118993,25.2691233 55.13,23.065 C55.1628354,20.9620275 54.9862987,18.8610072 54.603,16.793 C54.5361913,16.4419866 54.2871941,16.1532788 53.9498032,16.03563 C53.6124124,15.9179813 53.2378855,15.9892653 52.9673032,16.22263 C52.696721,16.4559948 52.5711913,16.8159866 52.638,17.167 C52.9967038,19.1014383 53.16152,21.0668379 53.13,23.034 C53.1164122,24.957951 52.6883621,26.856379 51.875,28.6 C51.6441374,29.0993355 51.8599519,29.6913731 52.358,29.925 Z" id="Shape" fill="#c6cdd7" data-original="#000000" style="" class=""/><path d="M2.472,37.391 C2.80078202,37.6194083 3.14797678,37.8200989 3.51,37.991 C3.942,38.212 4.667,38.582 4.718,38.841 C4.78085126,39.1828692 4.73974795,39.5357307 4.6,39.854 C4.451,40.174 4.295,40.449 4.16,40.686 C3.794,41.333 3.181,42.417 4.105,43.172 C4.321,43.372 4.694,43.661 5.034,43.922 C4.78370505,44.359639 4.67048978,44.8623148 4.709,45.365 C4.76206133,45.7609003 4.97674391,46.1171358 5.302,46.349 C5.524,46.505 5.761,46.641 5.994,46.774 C6.586,47.11 6.817,47.267 6.894,47.581 C6.94956021,47.9834802 6.91541128,48.3932674 6.794,48.781 C6.735,49.048 6.678,49.316 6.644,49.581 C6.54469822,50.4923539 6.65729272,51.4143284 6.973,52.275 C7.42281456,53.8638526 8.85996076,54.9707558 10.511,55 C10.7865929,54.9991845 11.0613714,54.9700312 11.331,54.913 C14.1877778,54.2358183 17.0028445,53.3934018 19.762,52.39 C22.015,53.712 23.438,57.732 23.809,59.241 C23.9197719,59.6870872 24.3203652,60.0002183 24.78,60 L49.88,59.93 C50.198095,59.9293833 50.4969218,59.7774667 50.6848608,59.5208273 C50.8727998,59.2641879 50.9274293,58.9334437 50.832,58.63 C50.584758,57.9524505 50.2437748,57.3128965 49.819,56.73 C49.5792082,56.3843183 49.3630492,56.0228282 49.172,55.648 C48.7190564,54.7315437 48.3414759,53.7797332 48.043,52.802 C47.4717419,50.8695435 47.0758071,48.8895347 46.86,46.886 C46.5099629,43.8919504 46.9660141,40.858744 48.181,38.1 C48.3802909,37.6313627 48.6170587,37.1795644 48.889,36.749 C49.0783508,36.4453242 49.091309,36.0636989 48.9229935,35.7478784 C48.7546779,35.432058 48.4306598,35.2300231 48.0729935,35.2178784 C47.7153272,35.2057337 47.3783508,35.3853242 47.189,35.689 C46.8649333,36.2062972 46.5814189,36.7479168 46.341,37.309 C44.9876868,40.3937013 44.4816273,43.7835409 44.875,47.129 C45.1062541,49.2528642 45.5279509,51.3516424 46.135,53.4 C46.4640482,54.4749292 46.879054,55.5216399 47.376,56.53 C47.6041562,56.9828684 47.8630969,57.4195592 48.151,57.837 L48.218,57.937 L25.536,58 C24.8721602,55.6278229 23.6672676,53.4419012 22.016,51.614 L22.916,51.299 C23.586,51.065 24.091,50.889 24.35,50.806 C28.634,49.451 30.776,47.5 30.718,45.006 C30.7049669,44.4631101 30.2610463,44.0298436 29.718,44.03 L29.7,44.03 C29.1480455,44.043101 28.711146,44.5010397 28.724,45.053 C28.748,46.082 27.905,47.583 23.748,48.898 C23.477,48.985 22.955,49.167 22.262,49.409 C21.519,49.669 20.574,49.999 19.532,50.353 L19.525,50.353 C16.7107997,51.3845725 13.8393482,52.2526858 10.925,52.953 C9.99237299,53.133267 9.08385414,52.5448046 8.867,51.62 C8.65336419,51.0511056 8.5729723,50.4408114 8.632,49.836 C8.658,49.626 8.706,49.418 8.752,49.209 C8.95576498,48.5176489 8.98564963,47.7866772 8.839,47.081 C8.54814599,46.1623751 7.87220583,45.4156291 6.987,45.035 L6.78,44.917 C6.88797779,44.6989963 7.01691908,44.4920204 7.165,44.299 C7.33275906,44.0864363 7.40714209,43.8149259 7.3711438,43.5465408 C7.33514552,43.2781557 7.19184383,43.0358431 6.974,42.875 C6.734,42.699 6.168,42.275 5.754,41.941 C5.802,41.854 5.854,41.758 5.904,41.671 C6.061,41.396 6.24,41.076 6.415,40.706 C6.73144627,40.0050454 6.82465982,39.2237273 6.682,38.468 C6.442,37.248 5.273,36.65 4.421,36.214 C4.13330073,36.0772824 3.85736569,35.9170729 3.596,35.735 C3.38336862,35.5912941 3.18391862,35.42899 3,35.25 C3,35.098 3.163,34.73 3.925,33.803 C5.71607044,31.4972449 7.2517206,29.0039928 8.505,26.367 C8.73934083,25.9538574 8.87135428,25.4906102 8.89,25.016 C8.78670832,24.0108401 8.25404392,23.0993679 7.429,22.516 C7.029,22.145 6.644,21.795 6.599,21.469 C6.60563423,21.2329751 6.65864086,21.0005614 6.755,20.785 C6.918,20.356 7.106,19.936 7.295,19.515 C7.70505054,18.6694994 8.03256792,17.786408 8.273,16.878 L8.373,16.452 C8.58408599,15.4522697 8.85626318,14.4664205 9.188,13.5 C9.97629737,11.324256 11.1967986,9.33056659 12.776,7.639 C14.689,5.615 17.7,4.183 21.738,3.38 C22.771,3.171 23.805,2.973 24.849,2.78 C25.3626322,2.6539631 25.6893163,2.14978225 25.594476,1.62948553 C25.4996358,1.10918881 25.0160682,0.752701481 24.491,0.816 C23.4363333,1.00666667 22.3876667,1.20666667 21.345,1.416 C16.836,2.316 13.559,3.897 11.322,6.261 C9.55741114,8.14917091 8.19304573,10.3748111 7.311,12.804 C6.95075136,13.8502634 6.65486506,14.9175914 6.425,16 L6.325,16.422 C6.1115707,17.2063052 5.82532664,17.9689531 5.47,18.7 C5.27,19.156 5.062,19.612 4.883,20.084 C4.65284498,20.6094053 4.56192334,21.1852424 4.619,21.756 C4.82021123,22.6521932 5.3374331,23.4459531 6.076,23.992 C6.565,24.44 6.886,24.756 6.89,25.031 C6.85421996,25.1830023 6.79697882,25.3291355 6.72,25.465 C5.52247783,27.986227 4.05560327,30.370443 2.345,32.576 C1.62,33.458 0.86,34.487 1.02,35.517 C1.23211923,36.311598 1.75555427,36.9871609 2.472,37.391 Z" id="Shape" fill="#c6cdd7" data-original="#000000" style="" class=""/><path d="M39.819,1.256 C39.4815627,1.13845962 39.1070506,1.20986851 38.836539,1.44332764 C38.5660274,1.67678677 38.4406133,2.03682814 38.507539,2.38782764 C38.5744647,2.73882715 38.8235627,3.02745962 39.161,3.145 C40.8910506,3.75813208 42.5427839,4.57309008 44.082,5.573 C44.547576,5.87012918 45.1658708,5.73357602 45.463,5.26799998 C45.7601292,4.80242395 45.623576,4.1841292 45.158,3.887 C43.4878551,2.80333242 41.6958324,1.92024351 39.819,1.256 Z" id="Shape" fill="#c6cdd7" data-original="#000000" style="" class=""/><path d="M12.167,17.8 L12.267,17.365 C12.4424278,16.5295136 12.6657971,15.7048165 12.936,14.895 C13.5391016,13.2259058 14.4723406,11.6954483 15.68,10.395 C16.9761231,9.17314541 18.5624442,8.30202828 20.289,7.864 C20.6376132,7.76576066 20.9058574,7.48669775 20.9902433,7.13447458 C21.0746292,6.7822514 20.9619648,6.41193017 20.6957164,6.1663819 C20.4294681,5.92083364 20.0512577,5.83844433 19.707,5.951 C17.6463921,6.48650189 15.7586426,7.54420641 14.226,9.022 C12.8334238,10.5175212 11.756941,12.2786676 11.061,14.2 C10.7612032,15.086623 10.5141052,15.9902005 10.321,16.906 L10.221,17.339 C10.1356254,17.6881834 10.2442362,18.0563226 10.5054777,18.3032451 C10.7667192,18.5501676 11.1403903,18.6378757 11.4842121,18.5329737 C11.8280339,18.4280717 12.0890973,18.1467025 12.168,17.796 L12.167,17.8 Z" id="Shape" fill="#c6cdd7" data-original="#000000" style="" class=""/><circle id="Oval" cx="10" cy="21" r="1" fill="#c6cdd7" data-original="#000000" style="" class=""/><path d="M38,15 C35.2399468,15.0033061 33.0033061,17.2399468 33,20 C33,20.5522847 33.4477153,21 34,21 C34.5522847,21 35,20.5522847 35,20 C35,18.3431458 36.3431458,17 38,17 C38.5522847,17 39,16.5522847 39,16 C39,15.4477153 38.5522847,15 38,15 Z" id="Shape" fill="#c6cdd7" data-original="#000000" style="" class=""/><path d="M56,32 C54.9708745,32.0013223 53.9676003,32.3224678 53.129,32.919 L45.182,25.4 C47.4428553,22.4227492 47.6096656,18.3522584 45.6,15.2 L49.012,12.47 C51.3359454,14.5296639 54.8502484,14.4658338 57.0978666,12.3231368 C59.3454847,10.1804399 59.577118,6.67319798 57.6308189,4.25351671 C55.6845198,1.83383544 52.2091361,1.30837639 49.6344994,3.04451687 C47.0598627,4.78065734 46.2442931,8.19961123 47.758,10.911 L44.358,13.633 C42.07539,11.3378845 38.729409,10.4578666 35.613,11.333 L34.745,9.173 C36.8107325,7.80777724 37.5628945,5.1342385 36.5120132,2.89220091 C35.4611319,0.650163313 32.9251045,-0.48214493 30.554262,0.23213076 C28.1834195,0.94640645 26.6949542,3.29119391 27.0574915,5.74061235 C27.4200289,8.1900308 29.5238994,10.0031182 32,10 C32.2970415,9.9963847 32.5931867,9.96660287 32.885,9.911 L33.752,12.069 C29.9306034,14.1120266 28.1101062,18.5901133 29.422,22.72 L25,24.686 C23.2515946,22.0199314 19.7503461,21.1409846 16.950032,22.6651513 C14.1497178,24.1893179 12.9869544,27.6068126 14.2766403,30.5225549 C15.5663262,33.4382973 18.8771025,34.8770639 21.8886801,33.830525 C24.9002576,32.7839862 26.6053594,29.6021759 25.809,26.515 L30.247,24.543 C31.3365471,26.3971352 33.0516025,27.8019418 35.084,28.505 L33.86,34.014 C31.8344507,34.0736773 30.1696369,35.6309518 29.9750347,37.6480144 C29.7804325,39.6650769 31.1168256,41.5119019 33.0936061,41.957716 C35.0703865,42.4035302 37.0701108,41.3090843 37.7601095,39.4037463 C38.4501082,37.4984082 37.6148615,35.3773066 35.811,34.454 L37.032,28.946 C37.3534804,28.9811575 37.6766039,28.999183 38,29 C40.1302296,29.000821 42.1909508,28.2420557 43.812,26.86 L51.761,34.38 C51.2669131,35.1648037 51.0032298,36.0726229 51,37 C51,39.7614237 53.2385763,42 56,42 C58.7614237,42 61,39.7614237 61,37 C61,34.2385763 58.7614237,32 56,32 Z M29,5 C28.9973324,3.48889853 30.1189886,2.21167534 31.6177779,2.01915194 C33.1165673,1.82662854 34.5246085,2.77890549 34.9039359,4.24162404 C35.2832632,5.70434259 34.5154609,7.22088183 33.112,7.781 L33.106,7.781 C32.75467,7.92385413 32.3792583,7.99818972 32,8 C31.2043505,8 30.4412888,7.68392948 29.8786797,7.12132034 C29.3160705,6.55871121 29,5.79564947 29,5 Z M20,32 C17.790861,32 16,30.209139 16,28 C16,25.790861 17.790861,24 20,24 C22.209139,24 24,25.790861 24,28 C24,30.209139 22.209139,32 20,32 Z M34,40 C32.8954305,40 32,39.1045695 32,38 C32,36.8954305 32.8954305,36 34,36 C35.1045695,36 36,36.8954305 36,38 C36,39.1045695 35.1045695,40 34,40 Z M53,4 C55.209139,4 57,5.790861 57,8 C57,10.209139 55.209139,12 53,12 C50.790861,12 49,10.209139 49,8 C49,5.790861 50.790861,4 53,4 Z M31,20 C31,16.1340068 34.1340068,13 38,13 C41.8659932,13 45,16.1340068 45,20 C45,23.8659932 41.8659932,27 38,27 C34.1358343,26.9955914 31.0044086,23.8641657 31,20 Z M56,40 C54.3431458,40 53,38.6568542 53,37 C53,35.3431458 54.3431458,34 56,34 C57.6568542,34 59,35.3431458 59,37 C59,38.6568542 57.6568542,40 56,40 Z" id="Shape" fill="#c6cdd7" data-original="#000000" style="" class=""/></g></g></g></svg>
